{
  "accessors": [
    {
      "bufferView": 2,
      "componentType": 5126,
      "count": 1048,
      "max": [
        8.735469818115234,
        4.4432501792907715,
        15.302490234375
      ],
      "min": [
        -8.18677043914795,
        -7.7606000900268555,
        3.9068799018859863
      ],
      "type": "VEC3"
    },
    {
      "bufferView": 2,
      "byteOffset": 12576,
      "componentType": 5126,
      "count": 1048,
      "max": [
        0.9916155338287354,
        0.998455822467804,
        0.9972765445709229
      ],
      "min": [
        -0.9981065392494202,
        -0.9909109473228455,
        -0.9972765445709229
      ],
      "type": "VEC3"
    },
    {
      "bufferView": 1,
      "componentType": 5126,
      "count": 1048,
      "max": [
        0.9846699833869934,
        0.9902099967002869
      ],
      "min": [
        0.0015899999998509884,
        0.0015200000489130616
      ],
      "type": "VEC2"
    },
    {
      "bufferView": 0,
      "componentType": 5125,
      "count": 1242,
      "type": "SCALAR"
    },
    {
      "bufferView": 2,
      "byteOffset": 25152,
      "componentType": 5126,
      "count": 4,
      "max": [
        1.0,
        1.0,
        0.0
      ],
      "min": [
        -1.0,
        -1.0,
        0.0
      ],
      "type": "VEC3"
    },
    {
      "bufferView": 2,
      "byteOffset": 25200,
      "componentType": 5126,
      "count": 4,
      "max": [
        0.0,
        0.0,
        1.0
      ],
      "min": [
        0.0,
        0.0,
        1.0
      ],
      "type": "VEC3"
    },
    {
      "bufferView": 1,
      "byteOffset": 8384,
      "componentType": 5126,
      "count": 4,
      "max": [
        0.9998999834060669,
        0.9998999834060669
      ],
      "min": [
        9.999999747378752e-05,
        9.999999747378752e-05
      ],
      "type": "VEC2"
    },
    {
      "bufferView": 0,
      "byteOffset": 4968,
      "componentType": 5125,
      "count": 6,
      "type": "SCALAR"
    }
  ],
  "asset": {
    "extras": {
      "author": "makcutka250 (https://sketchfab.com/makcutka250)",
      "license": "CC-BY-NC-SA-4.0 (http://creativecommons.org/licenses/by-nc-sa/4.0/)",
      "source": "https://sketchfab.com/3d-models/the-drunk-crab-529c6baef4b7405491cd9503da7d3a1e",
      "title": "The drunk crab"
    },
    "generator": "Sketchfab-12.68.0",
    "version": "2.0"
  },
  "bufferViews": [
    {
      "buffer": 0,
      "byteLength": 4992,
      "name": "floatBufferViews",
      "target": 34963
    },
    {
      "buffer": 0,
      "byteLength": 8416,
      "byteOffset": 4992,
      "byteStride": 8,
      "name": "floatBufferViews",
      "target": 34962
    },
    {
      "buffer": 0,
      "byteLength": 25248,
      "byteOffset": 13408,
      "byteStride": 12,
      "name": "floatBufferViews",
      "target": 34962
    }
  ],
  "buffers": [
    {
      "byteLength": 38656,
      "uri": "scene.bin"
    }
  ],
  "extensionsUsed": [
    "KHR_materials_unlit"
  ],
  "images": [
    {
      "uri": "textures/Plane_baseColor.png"
    },
    {
      "uri": "textures/CRAB_baseColor.png"
    }
  ],
  "materials": [
    {
      "alphaMode": "BLEND",
      "doubleSided": true,
      "extensions": {
        "KHR_materials_unlit": {}
      },
      "name": "Plane",
      "pbrMetallicRoughness": {
        "baseColorTexture": {
          "index": 0
        },
        "metallicFactor": 0.0
      }
    },
    {
      "doubleSided": true,
      "extensions": {
        "KHR_materials_unlit": {}
      },
      "name": "CRAB",
      "pbrMetallicRoughness": {
        "baseColorTexture": {
          "index": 1
        },
        "metallicFactor": 0.0
      }
    }
  ],
  "meshes": [
    {
      "name": "Crab_0",
      "primitives": [
        {
          "attributes": {
            "NORMAL": 1,
            "POSITION": 0,
            "TEXCOORD_0": 2
          },
          "indices": 3,
          "material": 1,
          "mode": 4
        }
      ]
    },
    {
      "name": "Shadow_0",
      "primitives": [
        {
          "attributes": {
            "NORMAL": 5,
            "POSITION": 4,
            "TEXCOORD_0": 6
          },
          "indices": 7,
          "material": 0,
          "mode": 4
        }
      ]
    }
  ],
  "nodes": [
    {
      "children": [
        1
      ],
      "matrix": [
        1.0,
        0.0,
        0.0,
        0.0,
        0.0,
        2.220446049250313e-16,
        -1.0,
        0.0,
        0.0,
        1.0,
        2.220446049250313e-16,
        0.0,
        0.0,
        0.0,
        0.0,
        1.0
      ],
      "name": "Sketchfab_model"
    },
    {
      "children": [
        2,
        4
      ],
      "name": "Root"
    },
    {
      "children": [
        3
      ],
      "matrix": [
        -0.9468000000000001,
        0.3218100000000001,
        0.0,
        0.0,
        -0.3218100000000001,
        -0.9468000000000001,
        0.0,
        0.0,
        0.0,
        0.0,
        1.0,
        0.0,
        0.0,
        0.0,
        -0.0,
        1.0
      ],
      "name": "Crab"
    },
    {
      "mesh": 0,
      "name": "Crab_0"
    },
    {
      "children": [
        5
      ],
      "matrix": [
        -3.15835,
        2.02728,
        0.0,
        0.0,
        -2.02728,
        -3.15835,
        0.0,
        0.0,
        0.0,
        0.0,
        3.75301,
        0.0,
        0.0,
        0.0,
        -0.5510400000000001,
        1.0
      ],
      "name": "Shadow"
    },
    {
      "mesh": 1,
      "name": "Shadow_0"
    }
  ],
  "samplers": [
    {
      "magFilter": 9729,
      "minFilter": 9987,
      "wrapS": 10497,
      "wrapT": 10497
    }
  ],
  "scene": 0,
  "scenes": [
    {
      "name": "Sketchfab_Scene",
      "nodes": [
        0
      ]
    }
  ],
  "textures": [
    {
      "sampler": 0,
      "source": 0
    },
    {
      "sampler": 0,
      "source": 1
    }
  ]
}
