{
  "accessors": [
    {
      "bufferView": 2,
      "componentType": 5126,
      "count": 4,
      "max": [
        1.1203583478927612,
        0.0,
        1.2719471454620361
      ],
      "min": [
        -1.108513593673706,
        0.0,
        -1.0557713508605957
      ],
      "type": "VEC3"
    },
    {
      "bufferView": 2,
      "byteOffset": 48,
      "componentType": 5126,
      "count": 4,
      "max": [
        0.0,
        1.0,
        -0.0
      ],
      "min": [
        0.0,
        1.0,
        -0.0
      ],
      "type": "VEC3"
    },
    {
      "bufferView": 1,
      "componentType": 5126,
      "count": 4,
      "max": [
        1.0129635334014893,
        0.9695580005645752
      ],
      "min": [
        0.036642879247665405,
        -0.0067626237869262695
      ],
      "type": "VEC2"
    },
    {
      "bufferView": 0,
      "componentType": 5125,
      "count": 6,
      "type": "SCALAR"
    },
    {
      "bufferView": 2,
      "byteOffset": 96,
      "componentType": 5126,
      "count": 1610,
      "max": [
        0.27421197295188904,
        0.5373501777648926,
        0.2927890717983246
      ],
      "min": [
        -0.2690035104751587,
        0.00029027462005615234,
        -0.26281100511550903
      ],
      "type": "VEC3"
    },
    {
      "bufferView": 2,
      "byteOffset": 19416,
      "componentType": 5126,
      "count": 1610,
      "max": [
        1.0,
        1.0,
        1.0
      ],
      "min": [
        -1.0,
        -1.0,
        -1.0
      ],
      "type": "VEC3"
    },
    {
      "bufferView": 1,
      "byteOffset": 32,
      "componentType": 5126,
      "count": 1610,
      "max": [
        0.9893232583999634,
        0.9833298325538635
      ],
      "min": [
        0.010562509298324585,
        0.010561658069491386
      ],
      "type": "VEC2"
    },
    {
      "bufferView": 0,
      "byteOffset": 24,
      "componentType": 5125,
      "count": 3438,
      "type": "SCALAR"
    },
    {
      "bufferView": 2,
      "byteOffset": 38736,
      "componentType": 5126,
      "count": 12575,
      "max": [
        0.5951973795890808,
        0.8809388279914856,
        1.432790994644165
      ],
      "min": [
        -0.5749722719192505,
        -0.16390389204025269,
        -0.7828007340431213
      ],
      "type": "VEC3"
    },
    {
      "bufferView": 2,
      "byteOffset": 189636,
      "componentType": 5126,
      "count": 12575,
      "max": [
        1.0,
        1.0,
        1.0
      ],
      "min": [
        -1.0,
        -1.0,
        -1.0
      ],
      "type": "VEC3"
    },
    {
      "bufferView": 1,
      "byteOffset": 12912,
      "componentType": 5126,
      "count": 12575,
      "max": [
        0.9967042803764343,
        0.9904850125312805
      ],
      "min": [
        0.0,
        0.0
      ],
      "type": "VEC2"
    },
    {
      "bufferView": 0,
      "byteOffset": 13776,
      "componentType": 5125,
      "count": 26370,
      "type": "SCALAR"
    },
    {
      "bufferView": 2,
      "byteOffset": 340536,
      "componentType": 5126,
      "count": 40,
      "max": [
        0.05457732081413269,
        0.3486707806587219,
        0.22337943315505981
      ],
      "min": [
        -0.26235252618789673,
        0.06295575946569443,
        -0.20820525288581848
      ],
      "type": "VEC3"
    },
    {
      "bufferView": 2,
      "byteOffset": 341016,
      "componentType": 5126,
      "count": 40,
      "max": [
        0.0,
        0.0,
        1.0
      ],
      "min": [
        -1.0,
        0.0,
        -0.0
      ],
      "type": "VEC3"
    },
    {
      "bufferView": 1,
      "byteOffset": 113512,
      "componentType": 5126,
      "count": 40,
      "max": [
        0.8925188183784485,
        0.893135130405426
      ],
      "min": [
        0.010565638542175293,
        0.3909439444541931
      ],
      "type": "VEC2"
    },
    {
      "bufferView": 0,
      "byteOffset": 119256,
      "componentType": 5125,
      "count": 90,
      "type": "SCALAR"
    },
    {
      "bufferView": 2,
      "byteOffset": 341496,
      "componentType": 5126,
      "count": 8,
      "max": [
        0.2883848249912262,
        0.2171032428741455,
        0.5856871008872986
      ],
      "min": [
        0.17868387699127197,
        -0.06417244672775269,
        0.5743589997291565
      ],
      "type": "VEC3"
    },
    {
      "bufferView": 2,
      "byteOffset": 341592,
      "componentType": 5126,
      "count": 8,
      "max": [
        0.0,
        0.0,
        1.0
      ],
      "min": [
        0.0,
        0.0,
        1.0
      ],
      "type": "VEC3"
    },
    {
      "bufferView": 1,
      "byteOffset": 113832,
      "componentType": 5126,
      "count": 8,
      "max": [
        0.5071659684181213,
        0.5657188296318054
      ],
      "min": [
        0.13385812938213348,
        0.44896024465560913
      ],
      "type": "VEC2"
    },
    {
      "bufferView": 0,
      "byteOffset": 119616,
      "componentType": 5125,
      "count": 12,
      "type": "SCALAR"
    },
    {
      "bufferView": 2,
      "byteOffset": 341688,
      "componentType": 5126,
      "count": 82,
      "max": [
        0.20513758063316345,
        0.4621385931968689,
        0.5152774453163147
      ],
      "min": [
        -0.33425214886665344,
        -0.12021034955978394,
        -0.020630382001399994
      ],
      "type": "VEC3"
    },
    {
      "bufferView": 2,
      "byteOffset": 342672,
      "componentType": 5126,
      "count": 82,
      "max": [
        1.0,
        1.0,
        1.0
      ],
      "min": [
        -1.0,
        -1.0,
        -1.0
      ],
      "type": "VEC3"
    },
    {
      "bufferView": 1,
      "byteOffset": 113896,
      "componentType": 5126,
      "count": 82,
      "max": [
        0.9277958869934082,
        0.8909745812416077
      ],
      "min": [
        0.5043588876724243,
        0.037485163658857346
      ],
      "type": "VEC2"
    },
    {
      "bufferView": 0,
      "byteOffset": 119664,
      "componentType": 5125,
      "count": 222,
      "type": "SCALAR"
    },
    {
      "bufferView": 2,
      "byteOffset": 343656,
      "componentType": 5126,
      "count": 8755,
      "max": [
        0.5970638990402222,
        0.8687626123428345,
        1.4347631931304932
      ],
      "min": [
        -0.5790749788284302,
        -0.1684475690126419,
        -0.7836729884147644
      ],
      "type": "VEC3"
    },
    {
      "bufferView": 2,
      "byteOffset": 448716,
      "componentType": 5126,
      "count": 8755,
      "max": [
        1.0,
        1.0,
        1.0
      ],
      "min": [
        -1.0,
        -1.0,
        -1.0
      ],
      "type": "VEC3"
    },
    {
      "bufferView": 1,
      "byteOffset": 114552,
      "componentType": 5126,
      "count": 8755,
      "max": [
        0.8615592122077942,
        0.951684296131134
      ],
      "min": [
        0.0,
        0.0
      ],
      "type": "VEC2"
    },
    {
      "bufferView": 0,
      "byteOffset": 120552,
      "componentType": 5125,
      "count": 13665,
      "type": "SCALAR"
    },
    {
      "bufferView": 2,
      "byteOffset": 553776,
      "componentType": 5126,
      "count": 23904,
      "max": [
        0.7945079207420349,
        0.5500785112380981,
        0.5432008504867554
      ],
      "min": [
        -1.8131823539733887,
        -1.387722134590149,
        -1.2886699438095093
      ],
      "type": "VEC3"
    },
    {
      "bufferView": 2,
      "byteOffset": 840624,
      "componentType": 5126,
      "count": 23904,
      "max": [
        0.9997782111167908,
        0.9997482895851135,
        0.688032865524292
      ],
      "min": [
        -0.9997549057006836,
        -0.9403674006462097,
        -0.9999842643737793
      ],
      "type": "VEC3"
    },
    {
      "bufferView": 1,
      "byteOffset": 184592,
      "componentType": 5126,
      "count": 23904,
      "max": [
        0.9459797143936157,
        0.972967803478241
      ],
      "min": [
        0.09572215378284454,
        0.0692138522863388
      ],
      "type": "VEC2"
    },
    {
      "bufferView": 0,
      "byteOffset": 175212,
      "componentType": 5125,
      "count": 35856,
      "type": "SCALAR"
    }
  ],
  "asset": {
    "extras": {
      "author": "Gregory Khodyrev (https://sketchfab.com/gmaaailgrisha)",
      "license": "CC-BY-NC-ND-4.0 (http://creativecommons.org/licenses/by-nc-nd/4.0/)",
      "source": "https://sketchfab.com/3d-models/station-b-042e09021b6f45bd848e6e466ebda2c3",
      "title": "Station B"
    },
    "generator": "Sketchfab-12.66.0",
    "version": "2.0"
  },
  "bufferViews": [
    {
      "buffer": 0,
      "byteLength": 318636,
      "name": "floatBufferViews",
      "target": 34963
    },
    {
      "buffer": 0,
      "byteLength": 375824,
      "byteOffset": 318636,
      "byteStride": 8,
      "name": "floatBufferViews",
      "target": 34962
    },
    {
      "buffer": 0,
      "byteLength": 1127472,
      "byteOffset": 694460,
      "byteStride": 12,
      "name": "floatBufferViews",
      "target": 34962
    }
  ],
  "buffers": [
    {
      "byteLength": 1821932,
      "uri": "scene.bin"
    }
  ],
  "images": [
    {
      "uri": "textures/Ground_baseColor.png"
    },
    {
      "uri": "textures/Ground_emissive.png"
    },
    {
      "uri": "textures/Build_baseColor.png"
    },
    {
      "uri": "textures/Details_baseColor.png"
    },
    {
      "uri": "textures/Details_emissive.png"
    },
    {
      "uri": "textures/Glass_baseColor.png"
    },
    {
      "uri": "textures/Grass_baseColor.png"
    },
    {
      "uri": "textures/Grass_emissive.png"
    }
  ],
  "materials": [
    {
      "alphaMode": "BLEND",
      "doubleSided": true,
      "emissiveFactor": [
        1.0,
        1.0,
        1.0
      ],
      "emissiveTexture": {
        "index": 1
      },
      "name": "Ground",
      "pbrMetallicRoughness": {
        "baseColorTexture": {
          "index": 0
        },
        "metallicFactor": 0.0,
        "roughnessFactor": 0.8248856707
      }
    },
    {
      "doubleSided": true,
      "emissiveFactor": [
        1.0,
        1.0,
        1.0
      ],
      "emissiveTexture": {
        "index": 2
      },
      "name": "Build",
      "pbrMetallicRoughness": {
        "baseColorTexture": {
          "index": 2
        },
        "metallicFactor": 0.0,
        "roughnessFactor": 0.5687881098
      }
    },
    {
      "alphaMode": "BLEND",
      "emissiveFactor": [
        0.6,
        0.6,
        0.6
      ],
      "emissiveTexture": {
        "index": 4
      },
      "name": "Details",
      "pbrMetallicRoughness": {
        "baseColorTexture": {
          "index": 3
        },
        "metallicFactor": 0.0,
        "roughnessFactor": 0.7395198171
      }
    },
    {
      "alphaMode": "BLEND",
      "doubleSided": true,
      "emissiveFactor": [
        0.6269054878,
        0.6269054878,
        0.6269054878
      ],
      "emissiveTexture": {
        "index": 2
      },
      "name": "Glass",
      "pbrMetallicRoughness": {
        "baseColorTexture": {
          "index": 5
        },
        "metallicFactor": 0.0,
        "roughnessFactor": 0.5
      }
    },
    {
      "alphaMode": "BLEND",
      "doubleSided": true,
      "emissiveFactor": [
        1.0,
        1.0,
        1.0
      ],
      "emissiveTexture": {
        "index": 4
      },
      "name": "Glass_2",
      "pbrMetallicRoughness": {
        "baseColorTexture": {
          "index": 3
        },
        "metallicFactor": 0.0,
        "roughnessFactor": 0.5
      }
    },
    {
      "doubleSided": true,
      "emissiveFactor": [
        1.0,
        1.0,
        1.0
      ],
      "emissiveTexture": {
        "index": 4
      },
      "name": "glow",
      "pbrMetallicRoughness": {
        "baseColorTexture": {
          "index": 4
        },
        "metallicFactor": 0.0,
        "roughnessFactor": 0.5
      }
    },
    {
      "emissiveFactor": [
        0.0468665705100481,
        0.002298607733995038,
        0.0005994602510938951
      ],
      "name": "Outline",
      "pbrMetallicRoughness": {
        "baseColorTexture": {
          "index": 2
        },
        "metallicFactor": 0.0,
        "roughnessFactor": 0.763910061
      }
    },
    {
      "alphaCutoff": 0.6846417683,
      "alphaMode": "MASK",
      "doubleSided": true,
      "emissiveFactor": [
        0.8098323171,
        0.8098323171,
        0.8098323171
      ],
      "emissiveTexture": {
        "index": 7
      },
      "name": "Grass",
      "pbrMetallicRoughness": {
        "baseColorTexture": {
          "index": 6
        },
        "metallicFactor": 0.0
      }
    }
  ],
  "meshes": [
    {
      "name": "Object_0",
      "primitives": [
        {
          "attributes": {
            "NORMAL": 1,
            "POSITION": 0,
            "TEXCOORD_0": 2
          },
          "indices": 3,
          "material": 0,
          "mode": 4
        }
      ]
    },
    {
      "name": "Object_1",
      "primitives": [
        {
          "attributes": {
            "NORMAL": 5,
            "POSITION": 4,
            "TEXCOORD_0": 6
          },
          "indices": 7,
          "material": 1,
          "mode": 4
        }
      ]
    },
    {
      "name": "Object_2",
      "primitives": [
        {
          "attributes": {
            "NORMAL": 9,
            "POSITION": 8,
            "TEXCOORD_0": 10
          },
          "indices": 11,
          "material": 2,
          "mode": 4
        }
      ]
    },
    {
      "name": "Object_3",
      "primitives": [
        {
          "attributes": {
            "NORMAL": 13,
            "POSITION": 12,
            "TEXCOORD_0": 14
          },
          "indices": 15,
          "material": 3,
          "mode": 4
        }
      ]
    },
    {
      "name": "Object_4",
      "primitives": [
        {
          "attributes": {
            "NORMAL": 17,
            "POSITION": 16,
            "TEXCOORD_0": 18
          },
          "indices": 19,
          "material": 4,
          "mode": 4
        }
      ]
    },
    {
      "name": "Object_5",
      "primitives": [
        {
          "attributes": {
            "NORMAL": 21,
            "POSITION": 20,
            "TEXCOORD_0": 22
          },
          "indices": 23,
          "material": 5,
          "mode": 4
        }
      ]
    },
    {
      "name": "Object_6",
      "primitives": [
        {
          "attributes": {
            "NORMAL": 25,
            "POSITION": 24,
            "TEXCOORD_0": 26
          },
          "indices": 27,
          "material": 6,
          "mode": 4
        }
      ]
    },
    {
      "name": "Object_7",
      "primitives": [
        {
          "attributes": {
            "NORMAL": 29,
            "POSITION": 28,
            "TEXCOORD_0": 30
          },
          "indices": 31,
          "material": 7,
          "mode": 4
        }
      ]
    }
  ],
  "nodes": [
    {
      "children": [
        1
      ],
      "matrix": [
        1.5192453861236572,
        0.0,
        0.0,
        0.0,
        0.0,
        3.373402415460041e-16,
        -1.5192453861236572,
        0.0,
        0.0,
        1.5192453861236572,
        3.373402415460041e-16,
        0.0,
        0.0,
        0.0,
        0.0,
        1.0
      ],
      "name": "Sketchfab_model"
    },
    {
      "children": [
        2
      ],
      "name": "root"
    },
    {
      "children": [
        3,
        5,
        7,
        9,
        11,
        13,
        15,
        17
      ],
      "matrix": [
        1.0,
        0.0,
        0.0,
        0.0,
        0.0,
        2.220446049250313e-16,
        1.0,
        0.0,
        0.0,
        -1.0,
        2.220446049250313e-16,
        0.0,
        0.0,
        0.0,
        0.0,
        1.0
      ],
      "name": "GLTF_SceneRootNode"
    },
    {
      "children": [
        4
      ],
      "name": "Plane.007_0"
    },
    {
      "mesh": 0,
      "name": "Object_4"
    },
    {
      "children": [
        6
      ],
      "matrix": [
        1.0,
        0.0,
        0.0,
        0.0,
        0.0,
        1.0,
        0.0,
        0.0,
        0.0,
        0.0,
        1.0,
        0.0,
        0.019333206117153168,
        0.0004247426986694336,
        -0.0032698623836040497,
        1.0
      ],
      "name": "Cube_2"
    },
    {
      "mesh": 1,
      "name": "Object_6"
    },
    {
      "children": [
        8
      ],
      "matrix": [
        1.0,
        0.0,
        0.0,
        0.0,
        0.0,
        1.0,
        0.0,
        0.0,
        0.0,
        0.0,
        1.0,
        0.0,
        -0.014636918902397156,
        0.13826076686382294,
        -0.22230839729309082,
        1.0
      ],
      "name": "Cube.012_3"
    },
    {
      "mesh": 2,
      "name": "Object_8"
    },
    {
      "children": [
        10
      ],
      "matrix": [
        1.0,
        0.0,
        0.0,
        0.0,
        0.0,
        1.0,
        0.0,
        0.0,
        0.0,
        0.0,
        1.0,
        0.0,
        0.019333206117153168,
        0.0004247426986694336,
        -0.0032698623836040497,
        1.0
      ],
      "name": "Cube.001_4"
    },
    {
      "mesh": 3,
      "name": "Object_10"
    },
    {
      "children": [
        12
      ],
      "matrix": [
        1.0,
        0.0,
        0.0,
        0.0,
        0.0,
        1.0,
        0.0,
        0.0,
        0.0,
        0.0,
        1.0,
        0.0,
        -0.014636918902397156,
        0.13826076686382294,
        -0.22230839729309082,
        1.0
      ],
      "name": "Cube.003_5"
    },
    {
      "mesh": 4,
      "name": "Object_12"
    },
    {
      "children": [
        14
      ],
      "matrix": [
        1.0,
        0.0,
        0.0,
        0.0,
        0.0,
        1.0,
        0.0,
        0.0,
        0.0,
        0.0,
        1.0,
        0.0,
        -0.014636918902397156,
        0.13826076686382294,
        -0.22230839729309082,
        1.0
      ],
      "name": "Cube.002_6"
    },
    {
      "mesh": 5,
      "name": "Object_14"
    },
    {
      "children": [
        16
      ],
      "matrix": [
        1.0,
        0.0,
        0.0,
        0.0,
        0.0,
        1.0,
        0.0,
        0.0,
        0.0,
        0.0,
        1.0,
        0.0,
        -0.014636918902397156,
        0.13826076686382294,
        -0.22230839729309082,
        1.0
      ],
      "name": "Cube.018_7"
    },
    {
      "mesh": 6,
      "name": "Object_16"
    },
    {
      "children": [
        18
      ],
      "matrix": [
        -0.1390282244468471,
        -0.1365929109650924,
        0.7389381651175173,
        0.0,
        -0.6665980701022874,
        0.350804160085157,
        -0.06057148867686641,
        0.0,
        -0.31731299545299907,
        -0.6334854655928376,
        -0.17680110774947755,
        0.0,
        -0.4674602448940277,
        0.0007159971282817423,
        0.44266921281814575,
        1.0
      ],
      "name": "Plane.174_10"
    },
    {
      "mesh": 7,
      "name": "Object_18"
    }
  ],
  "samplers": [
    {
      "magFilter": 9729,
      "minFilter": 9987,
      "wrapS": 10497,
      "wrapT": 10497
    }
  ],
  "scene": 0,
  "scenes": [
    {
      "name": "Sketchfab_Scene",
      "nodes": [
        0
      ]
    }
  ],
  "textures": [
    {
      "sampler": 0,
      "source": 0
    },
    {
      "sampler": 0,
      "source": 1
    },
    {
      "sampler": 0,
      "source": 2
    },
    {
      "sampler": 0,
      "source": 3
    },
    {
      "sampler": 0,
      "source": 4
    },
    {
      "sampler": 0,
      "source": 5
    },
    {
      "sampler": 0,
      "source": 6
    },
    {
      "sampler": 0,
      "source": 7
    }
  ]
}
